<svg width="512" height="512" xmlns="http://www.w3.org/2000/svg">
  <circle fill-rule="evenodd" cx="256" cy="256" r="256" fill="#337ab7"/>
  <path d="M287.8 238.6c-6.4-1-6.5-18.4-6.5-18.4S300 201.7 304 177c11 0 17.6-26.3 6.7-35.6.5-9.8 14-76.6-54.7-76.6s-55 66.8-54.6 76.6c-11 9.3-4.2 35.6 6.7 35.6 5 24.7 23 43.2 23 43.2s0 17.4-6 18.4c-20 3.2-96 36.8-96 73.6h256c0-36.8-76-70.4-96.3-73.6z" fill="#fff"/>
  <path d="M168 422.2l-3.3-16h-18.4l-3.2 16h-14l10-37.4 10-32h15c4 10.2 7 21 10 32.4 4 11.4 7 23.7 10 37h-15m-12-56l-2 7.5-2 7-1.3 7-1.4 7h13l-1.3-7c-.4-2.4-1-4.7-1.5-7s-1-4.6-1.8-7l-2-7.4zm48 44.8h2.6c3.3 0 6-.5 8-1.7s4-2.8 5-5c1.5-2 2.5-4.5 3-7.4.6-3 1-6 1-10 0-3-.4-6-1-9-.3-3-1-6-2.2-8-1-2-2.5-4-4.5-5-1.7-1.7-4-2-7.3-2h-4v47m33-23.6c0 6.4-1 12-2.4 16.4-1.7 4-4 8-6.7 11-3 2.3-6.2 4.4-10.2 6-4 1-8 2-13 2-2 0-4.5 0-7-.7-2.2-.2-5-.6-7.4-1.2v-67c3.2-.6 6-1 9-1.3h7.6c4.5 0 8.6.4 12.4 2 4 1 7 3.2 9.7 6 2.6 3 4.6 6.7 6 11 1.5 4.6 2 10 2 16zm42.3 35v-69h42V364h-29v17h25v11.5h-25v29.7h-14zm75-10c2.2 0 4.2-.3 5.7-.8 2-.6 3-1.3 4-2 1-1 1.6-2 2-3 0-1 .4-2 .4-3.4 0-1 0-2-1-3.4l-3-3-4.3-2.4-4.7-2c-2-.7-4.5-1.5-6.7-2.5-2.4-1-4.4-2.4-6-4-2-1.4-3.6-3.3-4.8-5.5-1.2-2-1.8-5-1.8-8 0-6.5 2-11.6 6.3-15 4-4 10-5.7 17.2-5.7 4.2 0 8 .4 11 1.3 3.3 1 6 2 8 3.5l-4 11c-1.8-1-3.8-2-6-2.7-2.4-.7-5-1-8-1-7.3 0-11 3-11 8 0 1.4.4 2.6 1 3.6 1 1 1.8 2 3 2 1 1 2.4 1.6 4 2 1.4.8 2.8 1.3 4.2 1.8l6.8 3c2.3 1 4.5 2.2 6.5 4 2 1.6 3.8 4 5 6.2 1.3 2.6 2 5.7 2 9.6 0 6.3-2 11.3-6.4 15-4 3.4-10.5 5-19 5-5.7 0-10.3-.6-13.7-2-3.6-1-6-2.2-8-3.2l4-11.2c2 1.2 4.6 2.3 7.4 3.3 3 1 6.4 2 10.4 2z" fill="#FFF" white-space="pre"/>
</svg>
