<svg width="503" height="503" viewBox="0 0 503 503" fill="none" xmlns="http://www.w3.org/2000/svg">
<rect width="503" height="503" fill="white"/>
<path d="M251.5 503C390.4 503 503 390.4 503 251.5C503 112.6 390.4 0 251.5 0C112.6 0 0 112.6 0 251.5C0 390.4 112.6 503 251.5 503Z" fill="#337AB7"/>
<path d="M282.741 234.406C276.453 233.423 276.355 216.329 276.355 216.329C276.355 216.329 294.727 198.155 298.656 173.889C309.463 173.889 315.947 148.051 305.238 138.914C305.73 129.287 318.992 63.6609 251.5 63.6609C184.008 63.6609 197.467 129.287 197.86 138.914C187.053 148.051 193.734 173.889 204.442 173.889C209.354 198.155 227.038 216.329 227.038 216.329C227.038 216.329 227.038 233.423 221.143 234.406C201.495 237.55 126.831 270.559 126.831 306.712H378.331C378.331 270.559 303.667 237.55 283.723 234.406H282.741Z" fill="white"/>
<path d="M124.625 376.156H100.797L95.4453 391H87.7109L109.43 334.125H115.992L137.75 391H130.055L124.625 376.156ZM103.062 369.984H122.398L112.711 343.383L103.062 369.984ZM151.539 385.102H176.266V391H142.711V385.688L166.031 354.711H143.062V348.734H175.094V353.852L151.539 385.102ZM210.523 386.82C207.711 390.128 203.583 391.781 198.141 391.781C193.635 391.781 190.198 390.479 187.828 387.875C185.484 385.245 184.299 381.365 184.273 376.234V348.734H191.5V376.039C191.5 382.445 194.104 385.648 199.312 385.648C204.833 385.648 208.505 383.591 210.328 379.477V348.734H217.555V391H210.68L210.523 386.82ZM249 355.219C247.906 355.036 246.721 354.945 245.445 354.945C240.706 354.945 237.49 356.964 235.797 361V391H228.57V348.734H235.602L235.719 353.617C238.089 349.841 241.448 347.953 245.797 347.953C247.203 347.953 248.271 348.135 249 348.5V355.219ZM272.438 391.781C266.708 391.781 262.047 389.906 258.453 386.156C254.859 382.38 253.062 377.341 253.062 371.039V369.711C253.062 365.518 253.857 361.781 255.445 358.5C257.06 355.193 259.299 352.615 262.164 350.766C265.055 348.891 268.18 347.953 271.539 347.953C277.034 347.953 281.305 349.763 284.352 353.383C287.398 357.003 288.922 362.185 288.922 368.93V371.938H260.289C260.393 376.104 261.604 379.477 263.922 382.055C266.266 384.607 269.234 385.883 272.828 385.883C275.38 385.883 277.542 385.362 279.312 384.32C281.083 383.279 282.633 381.898 283.961 380.18L288.375 383.617C284.833 389.06 279.521 391.781 272.438 391.781ZM271.539 353.891C268.622 353.891 266.174 354.958 264.195 357.094C262.216 359.203 260.992 362.172 260.523 366H281.695V365.453C281.487 361.781 280.497 358.943 278.727 356.938C276.956 354.906 274.56 353.891 271.539 353.891ZM349.703 376.156H325.875L320.523 391H312.789L334.508 334.125H341.07L362.828 391H355.133L349.703 376.156ZM328.141 369.984H347.477L337.789 343.383L328.141 369.984ZM370.484 391V334.125H386.539C391.487 334.125 395.862 335.219 399.664 337.406C403.466 339.594 406.396 342.706 408.453 346.742C410.536 350.779 411.591 355.414 411.617 360.648V364.281C411.617 369.646 410.576 374.346 408.492 378.383C406.435 382.419 403.479 385.518 399.625 387.68C395.797 389.841 391.331 390.948 386.227 391H370.484ZM377.984 340.297V384.867H385.875C391.656 384.867 396.148 383.07 399.352 379.477C402.581 375.883 404.195 370.766 404.195 364.125V360.805C404.195 354.346 402.672 349.333 399.625 345.766C396.604 342.172 392.307 340.349 386.734 340.297H377.984Z" fill="white"/>
</svg>
